<?xml version="1.0" encoding="UTF-8" standalone="no"?>
<!DOCTYPE svg PUBLIC "-//W3C//DTD SVG 1.1//EN"
 "http://www.w3.org/Graphics/SVG/1.1/DTD/svg11.dtd">
<!-- Generated by graphviz version 2.49.0 (20210828.1703)
 -->
<!-- Title: patch Pages: 1 -->
<svg width="476pt" height="280pt"
 viewBox="0.00 0.00 476.00 280.00" xmlns="http://www.w3.org/2000/svg" xmlns:xlink="http://www.w3.org/1999/xlink">
<g id="graph0" class="graph" transform="scale(1 1) rotate(0) translate(4 276)">
<title>patch</title>
<polygon fill="white" stroke="transparent" points="-4,4 -4,-276 472,-276 472,4 -4,4"/>
<g id="clust1" class="cluster">
<title>cluster_thisgroup</title>
<polygon fill="none" stroke="black" points="8,-8 8,-264 118,-264 118,-8 8,-8"/>
<text text-anchor="middle" x="63" y="-248.8" font-family="Times New Roman,serif" font-size="14.00">GROUP</text>
</g>
<g id="clust2" class="cluster">
<title>cluster_thiscluster</title>
<polygon fill="none" stroke="black" points="126,-8 126,-83 460,-83 460,-8 126,-8"/>
<text text-anchor="middle" x="293" y="-67.8" font-family="Times New Roman,serif" font-size="14.00">CLUSTER</text>
</g>
<!-- a -->
<g id="node1" class="node">
<title>a</title>
<path fill="lightgrey" stroke="black" stroke-width="2" d="M98,-233C98,-233 28,-233 28,-233 22,-233 16,-227 16,-221 16,-221 16,-209 16,-209 16,-203 22,-197 28,-197 28,-197 98,-197 98,-197 104,-197 110,-203 110,-209 110,-209 110,-221 110,-221 110,-227 104,-233 98,-233"/>
<text text-anchor="middle" x="63" y="-211.3" font-family="Arial" font-size="14.00">a</text>
</g>
<!-- b -->
<g id="node2" class="node">
<title>b</title>
<path fill="lightgrey" stroke="black" stroke-width="2" d="M98,-160C98,-160 28,-160 28,-160 22,-160 16,-154 16,-148 16,-148 16,-136 16,-136 16,-130 22,-124 28,-124 28,-124 98,-124 98,-124 104,-124 110,-130 110,-136 110,-136 110,-148 110,-148 110,-154 104,-160 98,-160"/>
<text text-anchor="middle" x="63" y="-138.3" font-family="Arial" font-size="14.00">Node B</text>
</g>
<!-- a&#45;&gt;b -->
<g id="edge1" class="edge">
<title>a&#45;&gt;b</title>
<path fill="none" stroke="black" d="M63,-196.81C63,-188.79 63,-179.05 63,-170.07"/>
<polygon fill="black" stroke="black" points="66.5,-170.03 63,-160.03 59.5,-170.03 66.5,-170.03"/>
</g>
<!-- c -->
<g id="node3" class="node">
<title>c</title>
<path fill="lightgrey" stroke="black" stroke-width="2" d="M98,-52C98,-52 28,-52 28,-52 22,-52 16,-46 16,-40 16,-40 16,-28 16,-28 16,-22 22,-16 28,-16 28,-16 98,-16 98,-16 104,-16 110,-22 110,-28 110,-28 110,-40 110,-40 110,-46 104,-52 98,-52"/>
<text text-anchor="middle" x="63" y="-30.3" font-family="Arial" font-size="14.00">c</text>
</g>
<!-- b&#45;&gt;c -->
<g id="edge4" class="edge">
<title>b&#45;&gt;c</title>
<path fill="none" stroke="#cd1be3" d="M63,-123.97C63,-107.38 63,-81.88 63,-62.43"/>
<polygon fill="#cd1be3" stroke="#cd1be3" points="66.5,-62.34 63,-52.34 59.5,-62.34 66.5,-62.34"/>
<text text-anchor="middle" x="95" y="-94.8" font-family="Times New Roman,serif" font-size="14.00" fill="#cd1be3">not scoped</text>
</g>
<!-- thiscluster_a -->
<g id="node4" class="node">
<title>thiscluster_a</title>
<path fill="lightgrey" stroke="black" stroke-width="2" d="M216,-52C216,-52 146,-52 146,-52 140,-52 134,-46 134,-40 134,-40 134,-28 134,-28 134,-22 140,-16 146,-16 146,-16 216,-16 216,-16 222,-16 228,-22 228,-28 228,-28 228,-40 228,-40 228,-46 222,-52 216,-52"/>
<text text-anchor="middle" x="181" y="-30.3" font-family="Arial" font-size="14.00">thiscluster_a</text>
</g>
<!-- b&#45;&gt;thiscluster_a -->
<g id="edge2" class="edge">
<title>b&#45;&gt;thiscluster_a</title>
<path fill="none" stroke="#49b55b" d="M104.22,-123.82C113.58,-118.86 123.09,-112.89 131,-106 145.46,-93.41 157.89,-75.82 166.74,-61.29"/>
<polygon fill="#49b55b" stroke="#49b55b" points="169.99,-62.67 172.02,-52.27 163.95,-59.13 169.99,-62.67"/>
<text text-anchor="middle" x="166" y="-94.8" font-family="Times New Roman,serif" font-size="14.00" fill="#49b55b">scoped</text>
</g>
<!-- thiscluster_c -->
<g id="node6" class="node">
<title>thiscluster_c</title>
<path fill="lightgrey" stroke="black" stroke-width="2" d="M440,-52C440,-52 370,-52 370,-52 364,-52 358,-46 358,-40 358,-40 358,-28 358,-28 358,-22 364,-16 370,-16 370,-16 440,-16 440,-16 446,-16 452,-22 452,-28 452,-28 452,-40 452,-40 452,-46 446,-52 440,-52"/>
<text text-anchor="middle" x="405" y="-30.3" font-family="Arial" font-size="14.00">thiscluster_c</text>
</g>
<!-- b&#45;&gt;thiscluster_c -->
<g id="edge3" class="edge">
<title>b&#45;&gt;thiscluster_c</title>
<path fill="none" stroke="#49b55b" d="M110.13,-138.7C168.81,-134.24 270.81,-121.19 349,-83 361.05,-77.12 372.6,-68.02 382.06,-59.32"/>
<polygon fill="#49b55b" stroke="#49b55b" points="384.69,-61.64 389.47,-52.18 379.84,-56.6 384.69,-61.64"/>
<text text-anchor="middle" x="348" y="-94.8" font-family="Times New Roman,serif" font-size="14.00" fill="#49b55b">scoped</text>
</g>
<!-- thiscluster_b -->
<g id="node5" class="node">
<title>thiscluster_b</title>
<path fill="lightgrey" stroke="black" stroke-width="2" d="M328,-52C328,-52 258,-52 258,-52 252,-52 246,-46 246,-40 246,-40 246,-28 246,-28 246,-22 252,-16 258,-16 258,-16 328,-16 328,-16 334,-16 340,-22 340,-28 340,-28 340,-40 340,-40 340,-46 334,-52 328,-52"/>
<text text-anchor="middle" x="293" y="-30.3" font-family="Arial" font-size="14.00">thiscluster_b</text>
</g>
</g>
</svg>
