<?xml version="1.0" encoding="UTF-8" standalone="no"?>
<!DOCTYPE svg PUBLIC "-//W3C//DTD SVG 1.1//EN"
 "http://www.w3.org/Graphics/SVG/1.1/DTD/svg11.dtd">
<!-- Generated by graphviz version 2.49.0 (20210828.1703)
 -->
<!-- Title: patch Pages: 1 -->
<svg width="364pt" height="273pt"
 viewBox="0.00 0.00 364.00 273.00" xmlns="http://www.w3.org/2000/svg" xmlns:xlink="http://www.w3.org/1999/xlink">
<g id="graph0" class="graph" transform="scale(1 1) rotate(0) translate(4 269)">
<title>patch</title>
<polygon fill="white" stroke="transparent" points="-4,4 -4,-269 360,-269 360,4 -4,4"/>
<g id="clust2" class="cluster">
<title>cluster_thiscluster</title>
<polygon fill="none" stroke="black" points="126,-95 126,-257 348,-257 348,-95 126,-95"/>
<text text-anchor="middle" x="237" y="-241.8" font-family="Times New Roman,serif" font-size="14.00">CLUSTER</text>
</g>
<g id="clust1" class="cluster">
<title>cluster_thisgroup</title>
<polygon fill="none" stroke="black" points="8,-8 8,-257 118,-257 118,-8 8,-8"/>
<text text-anchor="middle" x="63" y="-241.8" font-family="Times New Roman,serif" font-size="14.00">GROUP</text>
</g>
<!-- a -->
<g id="node1" class="node">
<title>a</title>
<path fill="lightgrey" stroke="black" stroke-width="2" d="M98,-226C98,-226 28,-226 28,-226 22,-226 16,-220 16,-214 16,-214 16,-202 16,-202 16,-196 22,-190 28,-190 28,-190 98,-190 98,-190 104,-190 110,-196 110,-202 110,-202 110,-214 110,-214 110,-220 104,-226 98,-226"/>
<text text-anchor="middle" x="63" y="-204.3" font-family="Arial" font-size="14.00">a</text>
</g>
<!-- b -->
<g id="node2" class="node">
<title>b</title>
<path fill="lightgrey" stroke="black" stroke-width="2" d="M98,-139C98,-139 28,-139 28,-139 22,-139 16,-133 16,-127 16,-127 16,-115 16,-115 16,-109 22,-103 28,-103 28,-103 98,-103 98,-103 104,-103 110,-109 110,-115 110,-115 110,-127 110,-127 110,-133 104,-139 98,-139"/>
<text text-anchor="middle" x="63" y="-117.3" font-family="Arial" font-size="14.00">Node B</text>
</g>
<!-- a&#45;&gt;b -->
<g id="edge1" class="edge">
<title>a&#45;&gt;b</title>
<path fill="none" stroke="#49b55b" d="M60.07,-189.96C59.23,-184.27 58.42,-177.88 58,-172 57.47,-164.55 57.85,-156.49 58.6,-149.06"/>
<polygon fill="#49b55b" stroke="#49b55b" points="62.08,-149.46 59.84,-139.1 55.13,-148.6 62.08,-149.46"/>
<text text-anchor="middle" x="90" y="-160.8" font-family="Times New Roman,serif" font-size="14.00" fill="#49b55b">not scoped</text>
</g>
<!-- c -->
<g id="node3" class="node">
<title>c</title>
<path fill="lightgrey" stroke="black" stroke-width="2" d="M98,-52C98,-52 28,-52 28,-52 22,-52 16,-46 16,-40 16,-40 16,-28 16,-28 16,-22 22,-16 28,-16 28,-16 98,-16 98,-16 104,-16 110,-22 110,-28 110,-28 110,-40 110,-40 110,-46 104,-52 98,-52"/>
<text text-anchor="middle" x="63" y="-30.3" font-family="Arial" font-size="14.00">c</text>
</g>
<!-- b&#45;&gt;c -->
<g id="edge7" class="edge">
<title>b&#45;&gt;c</title>
<path fill="none" stroke="#49b55b" d="M63,-102.8C63,-91.16 63,-75.55 63,-62.24"/>
<polygon fill="#49b55b" stroke="#49b55b" points="66.5,-62.18 63,-52.18 59.5,-62.18 66.5,-62.18"/>
<text text-anchor="middle" x="95" y="-73.8" font-family="Times New Roman,serif" font-size="14.00" fill="#49b55b">not scoped</text>
</g>
<!-- thiscluster_a -->
<g id="node4" class="node">
<title>thiscluster_a</title>
<path fill="lightgrey" stroke="black" stroke-width="2" d="M233,-226C233,-226 163,-226 163,-226 157,-226 151,-220 151,-214 151,-214 151,-202 151,-202 151,-196 157,-190 163,-190 163,-190 233,-190 233,-190 239,-190 245,-196 245,-202 245,-202 245,-214 245,-214 245,-220 239,-226 233,-226"/>
<text text-anchor="middle" x="198" y="-204.3" font-family="Arial" font-size="14.00">thiscluster_a</text>
</g>
<!-- b&#45;&gt;thiscluster_a -->
<g id="edge2" class="edge">
<title>b&#45;&gt;thiscluster_a</title>
<path fill="none" stroke="#cd1be3" d="M90.03,-139.16C105.28,-148.83 124.69,-161.11 142,-172 148.41,-176.03 155.23,-180.31 161.83,-184.44"/>
<polygon fill="#cd1be3" stroke="#cd1be3" points="160.3,-187.61 170.64,-189.94 164.01,-181.67 160.3,-187.61"/>
<text text-anchor="middle" x="163" y="-160.8" font-family="Times New Roman,serif" font-size="14.00" fill="#cd1be3">scoped</text>
</g>
<!-- thiscluster_b -->
<g id="node5" class="node">
<title>thiscluster_b</title>
<path fill="lightgrey" stroke="black" stroke-width="2" d="M216,-139C216,-139 146,-139 146,-139 140,-139 134,-133 134,-127 134,-127 134,-115 134,-115 134,-109 140,-103 146,-103 146,-103 216,-103 216,-103 222,-103 228,-109 228,-115 228,-115 228,-127 228,-127 228,-133 222,-139 216,-139"/>
<text text-anchor="middle" x="181" y="-117.3" font-family="Arial" font-size="14.00">thiscluster_b</text>
</g>
<!-- thiscluster_a&#45;&gt;thiscluster_b -->
<g id="edge3" class="edge">
<title>thiscluster_a&#45;&gt;thiscluster_b</title>
<path fill="none" stroke="#cd1be3" d="M194.56,-189.8C192.23,-178.16 189.11,-162.55 186.45,-149.24"/>
<polygon fill="#cd1be3" stroke="#cd1be3" points="189.83,-148.29 184.44,-139.18 182.96,-149.67 189.83,-148.29"/>
<text text-anchor="middle" x="211" y="-160.8" font-family="Times New Roman,serif" font-size="14.00" fill="#cd1be3">scoped</text>
</g>
<!-- thiscluster_c -->
<g id="node6" class="node">
<title>thiscluster_c</title>
<path fill="lightgrey" stroke="black" stroke-width="2" d="M328,-139C328,-139 258,-139 258,-139 252,-139 246,-133 246,-127 246,-127 246,-115 246,-115 246,-109 252,-103 258,-103 258,-103 328,-103 328,-103 334,-103 340,-109 340,-115 340,-115 340,-127 340,-127 340,-133 334,-139 328,-139"/>
<text text-anchor="middle" x="293" y="-117.3" font-family="Arial" font-size="14.00">thiscluster_c</text>
</g>
<!-- thiscluster_a&#45;&gt;thiscluster_c -->
<g id="edge4" class="edge">
<title>thiscluster_a&#45;&gt;thiscluster_c</title>
<path fill="none" stroke="#cd1be3" d="M217.22,-189.8C231.26,-177.24 250.47,-160.05 266.04,-146.12"/>
<polygon fill="#cd1be3" stroke="#cd1be3" points="268.69,-148.45 273.8,-139.18 264.02,-143.24 268.69,-148.45"/>
<text text-anchor="middle" x="272" y="-160.8" font-family="Times New Roman,serif" font-size="14.00" fill="#cd1be3">scoped</text>
</g>
<!-- thiscluster_b&#45;&gt;c -->
<g id="edge5" class="edge">
<title>thiscluster_b&#45;&gt;c</title>
<path fill="none" stroke="#33cb78" d="M166.39,-102.89C156.97,-92.55 144.09,-79.55 131,-70 124.59,-65.32 117.47,-60.92 110.31,-56.92"/>
<polygon fill="#33cb78" stroke="#33cb78" points="111.75,-53.72 101.28,-52.08 108.44,-59.89 111.75,-53.72"/>
<text text-anchor="middle" x="171.5" y="-73.8" font-family="Times New Roman,serif" font-size="14.00" fill="#33cb78">absolute</text>
</g>
<!-- thiscluster_c&#45;&gt;c -->
<g id="edge6" class="edge">
<title>thiscluster_c&#45;&gt;c</title>
<path fill="none" stroke="#33cb78" d="M265.03,-102.87C246.76,-92.24 222.09,-78.97 199,-70 173.73,-60.19 144.76,-52.3 120.07,-46.51"/>
<polygon fill="#33cb78" stroke="#33cb78" points="120.65,-43.05 110.12,-44.24 119.09,-49.88 120.65,-43.05"/>
<text text-anchor="middle" x="253.5" y="-73.8" font-family="Times New Roman,serif" font-size="14.00" fill="#33cb78">absolute</text>
</g>
</g>
</svg>
