<?xml version="1.0" encoding="UTF-8" standalone="no"?>
<!DOCTYPE svg PUBLIC "-//W3C//DTD SVG 1.1//EN"
 "http://www.w3.org/Graphics/SVG/1.1/DTD/svg11.dtd">
<!-- Generated by graphviz version 2.49.0 (20210828.1703)
 -->
<!-- Title: patch Pages: 1 -->
<svg width="550pt" height="305pt"
 viewBox="0.00 0.00 550.00 305.00" xmlns="http://www.w3.org/2000/svg" xmlns:xlink="http://www.w3.org/1999/xlink">
<g id="graph0" class="graph" transform="scale(1 1) rotate(0) translate(4 301)">
<title>patch</title>
<polygon fill="white" stroke="transparent" points="-4,4 -4,-301 546,-301 546,4 -4,4"/>
<!-- a -->
<g id="node1" class="node">
<title>a</title>
<path fill="lightgrey" stroke="black" stroke-width="2" d="M306,-297C306,-297 236,-297 236,-297 230,-297 224,-291 224,-285 224,-285 224,-273 224,-273 224,-267 230,-261 236,-261 236,-261 306,-261 306,-261 312,-261 318,-267 318,-273 318,-273 318,-285 318,-285 318,-291 312,-297 306,-297"/>
<text text-anchor="middle" x="271" y="-275.3" font-family="Arial" font-size="14.00">a</text>
</g>
<!-- b -->
<g id="node2" class="node">
<title>b</title>
<path fill="lightgrey" stroke="black" stroke-width="2" d="M306,-210C306,-210 236,-210 236,-210 230,-210 224,-204 224,-198 224,-198 224,-186 224,-186 224,-180 230,-174 236,-174 236,-174 306,-174 306,-174 312,-174 318,-180 318,-186 318,-186 318,-198 318,-198 318,-204 312,-210 306,-210"/>
<text text-anchor="middle" x="271" y="-188.3" font-family="Arial" font-size="14.00">b</text>
</g>
<!-- a&#45;&gt;b -->
<g id="edge1" class="edge">
<title>a&#45;&gt;b</title>
<path fill="none" stroke="black" d="M269.83,-260.92C269.49,-255.22 269.17,-248.84 269,-243 268.79,-235.65 268.94,-227.69 269.23,-220.33"/>
<polygon fill="black" stroke="black" points="272.74,-220.28 269.73,-210.12 265.74,-219.94 272.74,-220.28"/>
</g>
<!-- b&#45;&gt;a -->
<g id="edge8" class="edge">
<title>b&#45;&gt;a</title>
<path fill="none" stroke="#33cb78" d="M271,-210.18C271,-221.81 271,-237.42 271,-250.73"/>
<polygon fill="#33cb78" stroke="#33cb78" points="267.5,-250.8 271,-260.8 274.5,-250.8 267.5,-250.8"/>
<text text-anchor="middle" x="298" y="-231.8" font-family="Times New Roman,serif" font-size="14.00" fill="#33cb78">individual</text>
</g>
<!-- c -->
<g id="node3" class="node">
<title>c</title>
<path fill="lightgrey" stroke="black" stroke-width="2" d="M82,-123C82,-123 12,-123 12,-123 6,-123 0,-117 0,-111 0,-111 0,-99 0,-99 0,-93 6,-87 12,-87 12,-87 82,-87 82,-87 88,-87 94,-93 94,-99 94,-99 94,-111 94,-111 94,-117 88,-123 82,-123"/>
<text text-anchor="middle" x="47" y="-101.3" font-family="Arial" font-size="14.00">c</text>
</g>
<!-- b&#45;&gt;c -->
<g id="edge2" class="edge">
<title>b&#45;&gt;c</title>
<path fill="none" stroke="#49b55b" d="M225.94,-173.9C190.02,-160.27 139.59,-141.13 101.41,-126.65"/>
<polygon fill="#49b55b" stroke="#49b55b" points="102.58,-123.35 91.99,-123.07 100.1,-129.89 102.58,-123.35"/>
<text text-anchor="middle" x="186" y="-144.8" font-family="Times New Roman,serif" font-size="14.00" fill="#49b55b">label</text>
</g>
<!-- d -->
<g id="node4" class="node">
<title>d</title>
<path fill="lightgrey" stroke="black" stroke-width="2" d="M194,-123C194,-123 124,-123 124,-123 118,-123 112,-117 112,-111 112,-111 112,-99 112,-99 112,-93 118,-87 124,-87 124,-87 194,-87 194,-87 200,-87 206,-93 206,-99 206,-99 206,-111 206,-111 206,-117 200,-123 194,-123"/>
<text text-anchor="middle" x="159" y="-101.3" font-family="Arial" font-size="14.00">d</text>
</g>
<!-- b&#45;&gt;d -->
<g id="edge3" class="edge">
<title>b&#45;&gt;d</title>
<path fill="none" stroke="#49b55b" d="M248.34,-173.8C231.48,-161.01 208.3,-143.42 189.78,-129.36"/>
<polygon fill="#49b55b" stroke="#49b55b" points="191.71,-126.43 181.63,-123.18 187.48,-132.01 191.71,-126.43"/>
<text text-anchor="middle" x="235" y="-144.8" font-family="Times New Roman,serif" font-size="14.00" fill="#49b55b">label</text>
</g>
<!-- e -->
<g id="node5" class="node">
<title>e</title>
<path fill="lightgrey" stroke="black" stroke-width="2" d="M306,-123C306,-123 236,-123 236,-123 230,-123 224,-117 224,-111 224,-111 224,-99 224,-99 224,-93 230,-87 236,-87 236,-87 306,-87 306,-87 312,-87 318,-93 318,-99 318,-99 318,-111 318,-111 318,-117 312,-123 306,-123"/>
<text text-anchor="middle" x="271" y="-101.3" font-family="Arial" font-size="14.00">e</text>
</g>
<!-- b&#45;&gt;e -->
<g id="edge4" class="edge">
<title>b&#45;&gt;e</title>
<path fill="none" stroke="#49b55b" d="M271,-173.8C271,-162.16 271,-146.55 271,-133.24"/>
<polygon fill="#49b55b" stroke="#49b55b" points="274.5,-133.18 271,-123.18 267.5,-133.18 274.5,-133.18"/>
<text text-anchor="middle" x="284" y="-144.8" font-family="Times New Roman,serif" font-size="14.00" fill="#49b55b">label</text>
</g>
<!-- x -->
<g id="node7" class="node">
<title>x</title>
<path fill="lightgrey" stroke="black" stroke-width="2" d="M418,-123C418,-123 348,-123 348,-123 342,-123 336,-117 336,-111 336,-111 336,-99 336,-99 336,-93 342,-87 348,-87 348,-87 418,-87 418,-87 424,-87 430,-93 430,-99 430,-99 430,-111 430,-111 430,-117 424,-123 418,-123"/>
<text text-anchor="middle" x="383" y="-101.3" font-family="Arial" font-size="14.00">x</text>
</g>
<!-- b&#45;&gt;x -->
<g id="edge9" class="edge">
<title>b&#45;&gt;x</title>
<path fill="none" stroke="#cf0df1" d="M293.66,-173.8C310.52,-161.01 333.7,-143.42 352.22,-129.36"/>
<polygon fill="#cf0df1" stroke="#cf0df1" points="354.52,-132.01 360.37,-123.18 350.29,-126.43 354.52,-132.01"/>
<text text-anchor="middle" x="345" y="-144.8" font-family="Times New Roman,serif" font-size="14.00" fill="#cf0df1">item</text>
</g>
<!-- y -->
<g id="node8" class="node">
<title>y</title>
<path fill="lightgrey" stroke="black" stroke-width="2" d="M530,-123C530,-123 460,-123 460,-123 454,-123 448,-117 448,-111 448,-111 448,-99 448,-99 448,-93 454,-87 460,-87 460,-87 530,-87 530,-87 536,-87 542,-93 542,-99 542,-99 542,-111 542,-111 542,-117 536,-123 530,-123"/>
<text text-anchor="middle" x="495" y="-101.3" font-family="Arial" font-size="14.00">y</text>
</g>
<!-- b&#45;&gt;y -->
<g id="edge10" class="edge">
<title>b&#45;&gt;y</title>
<path fill="none" stroke="#af4eb0" d="M316.06,-173.9C351.98,-160.27 402.41,-141.13 440.59,-126.65"/>
<polygon fill="#af4eb0" stroke="#af4eb0" points="441.9,-129.89 450.01,-123.07 439.42,-123.35 441.9,-129.89"/>
<text text-anchor="middle" x="412" y="-144.8" font-family="Times New Roman,serif" font-size="14.00" fill="#af4eb0">labels</text>
</g>
<!-- f -->
<g id="node6" class="node">
<title>f</title>
<path fill="lightgrey" stroke="black" stroke-width="2" d="M194,-36C194,-36 124,-36 124,-36 118,-36 112,-30 112,-24 112,-24 112,-12 112,-12 112,-6 118,0 124,0 124,0 194,0 194,0 200,0 206,-6 206,-12 206,-12 206,-24 206,-24 206,-30 200,-36 194,-36"/>
<text text-anchor="middle" x="159" y="-14.3" font-family="Arial" font-size="14.00">f</text>
</g>
<!-- c&#45;&gt;f -->
<g id="edge5" class="edge">
<title>c&#45;&gt;f</title>
<path fill="none" stroke="#cd1be3" d="M69.66,-86.8C86.52,-74.01 109.7,-56.42 128.22,-42.36"/>
<polygon fill="#cd1be3" stroke="#cd1be3" points="130.52,-45.01 136.37,-36.18 126.29,-39.43 130.52,-45.01"/>
<text text-anchor="middle" x="128.5" y="-57.8" font-family="Times New Roman,serif" font-size="14.00" fill="#cd1be3">results</text>
</g>
<!-- d&#45;&gt;f -->
<g id="edge6" class="edge">
<title>d&#45;&gt;f</title>
<path fill="none" stroke="#cd1be3" d="M159,-86.8C159,-75.16 159,-59.55 159,-46.24"/>
<polygon fill="#cd1be3" stroke="#cd1be3" points="162.5,-46.18 159,-36.18 155.5,-46.18 162.5,-46.18"/>
<text text-anchor="middle" x="177.5" y="-57.8" font-family="Times New Roman,serif" font-size="14.00" fill="#cd1be3">results</text>
</g>
<!-- e&#45;&gt;f -->
<g id="edge7" class="edge">
<title>e&#45;&gt;f</title>
<path fill="none" stroke="#cd1be3" d="M248.34,-86.8C231.48,-74.01 208.3,-56.42 189.78,-42.36"/>
<polygon fill="#cd1be3" stroke="#cd1be3" points="191.71,-39.43 181.63,-36.18 187.48,-45.01 191.71,-39.43"/>
<text text-anchor="middle" x="240.5" y="-57.8" font-family="Times New Roman,serif" font-size="14.00" fill="#cd1be3">results</text>
</g>
</g>
</svg>
