<?xml version="1.0" encoding="UTF-8" standalone="no"?>
<!DOCTYPE svg PUBLIC "-//W3C//DTD SVG 1.1//EN"
 "http://www.w3.org/Graphics/SVG/1.1/DTD/svg11.dtd">
<!-- Generated by graphviz version 2.49.0 (20210828.1703)
 -->
<!-- Title: patch Pages: 1 -->
<svg width="326pt" height="362pt"
 viewBox="0.00 0.00 326.00 362.00" xmlns="http://www.w3.org/2000/svg" xmlns:xlink="http://www.w3.org/1999/xlink">
<g id="graph0" class="graph" transform="scale(1 1) rotate(0) translate(4 358)">
<title>patch</title>
<polygon fill="white" stroke="transparent" points="-4,4 -4,-358 322,-358 322,4 -4,4"/>
<!-- a -->
<g id="node1" class="node">
<title>a</title>
<ellipse fill="cyan" stroke="cyan" stroke-width="2" cx="159" cy="-307" rx="47" ry="47"/>
<text text-anchor="middle" x="159" y="-303.3" font-family="Arial" font-size="14.00">a</text>
</g>
<!-- b -->
<g id="node2" class="node">
<title>b</title>
<ellipse fill="cyan" stroke="cyan" stroke-width="2" cx="47" cy="-177" rx="47" ry="47"/>
<text text-anchor="middle" x="47" y="-173.3" font-family="Arial" font-size="14.00">b</text>
</g>
<!-- a&#45;&gt;b -->
<g id="edge1" class="edge">
<title>a&#45;&gt;b</title>
<path fill="none" stroke="black" d="M128.4,-271.02C114.81,-255.5 98.71,-237.09 84.42,-220.76"/>
<polygon fill="black" stroke="black" points="86.79,-218.16 77.57,-212.93 81.52,-222.76 86.79,-218.16"/>
</g>
<!-- c -->
<g id="node3" class="node">
<title>c</title>
<ellipse fill="cyan" stroke="cyan" stroke-width="2" cx="159" cy="-177" rx="47" ry="47"/>
<text text-anchor="middle" x="159" y="-173.3" font-family="Arial" font-size="14.00">c</text>
</g>
<!-- a&#45;&gt;c -->
<g id="edge2" class="edge">
<title>a&#45;&gt;c</title>
<path fill="none" stroke="black" d="M159,-259.79C159,-251.54 159,-242.87 159,-234.37"/>
<polygon fill="black" stroke="black" points="162.5,-234.14 159,-224.14 155.5,-234.14 162.5,-234.14"/>
</g>
<!-- d -->
<g id="node4" class="node">
<title>d</title>
<ellipse fill="cyan" stroke="cyan" stroke-width="2" cx="271" cy="-177" rx="47" ry="47"/>
<text text-anchor="middle" x="271" y="-173.3" font-family="Arial" font-size="14.00">d</text>
</g>
<!-- a&#45;&gt;d -->
<g id="edge3" class="edge">
<title>a&#45;&gt;d</title>
<path fill="none" stroke="black" d="M189.6,-271.02C203.19,-255.5 219.29,-237.09 233.58,-220.76"/>
<polygon fill="black" stroke="black" points="236.48,-222.76 240.43,-212.93 231.21,-218.16 236.48,-222.76"/>
</g>
<!-- e -->
<g id="node5" class="node">
<title>e</title>
<ellipse fill="cyan" stroke="cyan" stroke-width="2" cx="159" cy="-47" rx="47" ry="47"/>
<text text-anchor="middle" x="159" y="-43.3" font-family="Arial" font-size="14.00">e</text>
</g>
<!-- b&#45;&gt;e -->
<g id="edge4" class="edge">
<title>b&#45;&gt;e</title>
<path fill="none" stroke="black" d="M77.6,-141.02C91.19,-125.5 107.29,-107.09 121.58,-90.76"/>
<polygon fill="black" stroke="black" points="124.48,-92.76 128.43,-82.93 119.21,-88.16 124.48,-92.76"/>
</g>
<!-- c&#45;&gt;e -->
<g id="edge5" class="edge">
<title>c&#45;&gt;e</title>
<path fill="none" stroke="black" d="M159,-129.79C159,-121.54 159,-112.87 159,-104.37"/>
<polygon fill="black" stroke="black" points="162.5,-104.14 159,-94.14 155.5,-104.14 162.5,-104.14"/>
</g>
<!-- d&#45;&gt;e -->
<g id="edge6" class="edge">
<title>d&#45;&gt;e</title>
<path fill="none" stroke="black" d="M240.4,-141.02C226.81,-125.5 210.71,-107.09 196.42,-90.76"/>
<polygon fill="black" stroke="black" points="198.79,-88.16 189.57,-82.93 193.52,-92.76 198.79,-88.16"/>
</g>
</g>
</svg>
