<?xml version="1.0" encoding="UTF-8" standalone="no"?>
<!DOCTYPE svg PUBLIC "-//W3C//DTD SVG 1.1//EN"
 "http://www.w3.org/Graphics/SVG/1.1/DTD/svg11.dtd">
<!-- Generated by graphviz version 2.49.0 (20210828.1703)
 -->
<!-- Title: patch Pages: 1 -->
<svg width="276pt" height="305pt"
 viewBox="0.00 0.00 276.00 305.00" xmlns="http://www.w3.org/2000/svg" xmlns:xlink="http://www.w3.org/1999/xlink">
<g id="graph0" class="graph" transform="scale(1 1) rotate(0) translate(4 301)">
<title>patch</title>
<polygon fill="white" stroke="transparent" points="-4,4 -4,-301 272,-301 272,4 -4,4"/>
<!-- a -->
<g id="node1" class="node">
<title>a</title>
<path fill="lightgrey" stroke="black" stroke-width="2" d="M248,-297C248,-297 178,-297 178,-297 172,-297 166,-291 166,-285 166,-285 166,-273 166,-273 166,-267 172,-261 178,-261 178,-261 248,-261 248,-261 254,-261 260,-267 260,-273 260,-273 260,-285 260,-285 260,-291 254,-297 248,-297"/>
<text text-anchor="middle" x="213" y="-275.3" font-family="Arial" font-size="14.00">a</text>
</g>
<!-- b -->
<g id="node2" class="node">
<title>b</title>
<path fill="lightgrey" stroke="black" stroke-width="2" d="M188,-210C188,-210 118,-210 118,-210 112,-210 106,-204 106,-198 106,-198 106,-186 106,-186 106,-180 112,-174 118,-174 118,-174 188,-174 188,-174 194,-174 200,-180 200,-186 200,-186 200,-198 200,-198 200,-204 194,-210 188,-210"/>
<text text-anchor="middle" x="153" y="-188.3" font-family="Arial" font-size="14.00">b</text>
</g>
<!-- a&#45;&gt;b -->
<g id="edge1" class="edge">
<title>a&#45;&gt;b</title>
<path fill="none" stroke="magenta" d="M200.86,-260.8C192.32,-248.7 180.74,-232.3 171.12,-218.67"/>
<polygon fill="magenta" stroke="magenta" points="173.75,-216.33 165.12,-210.18 168.03,-220.36 173.75,-216.33"/>
<text text-anchor="middle" x="197" y="-231.8" font-family="Times New Roman,serif" font-size="14.00" fill="magenta">test</text>
</g>
<!-- c -->
<g id="node3" class="node">
<title>c</title>
<path fill="lightgrey" stroke="black" stroke-width="2" d="M82,-123C82,-123 12,-123 12,-123 6,-123 0,-117 0,-111 0,-111 0,-99 0,-99 0,-93 6,-87 12,-87 12,-87 82,-87 82,-87 88,-87 94,-93 94,-99 94,-99 94,-111 94,-111 94,-117 88,-123 82,-123"/>
<text text-anchor="middle" x="47" y="-101.3" font-family="Arial" font-size="14.00">c</text>
</g>
<!-- b&#45;&gt;c -->
<g id="edge2" class="edge">
<title>b&#45;&gt;c</title>
<path fill="none" stroke="cyan" d="M123.68,-173.93C115.14,-168.54 105.98,-162.33 98,-156 88.24,-148.25 78.28,-138.87 69.78,-130.34"/>
<polygon fill="cyan" stroke="cyan" points="72.22,-127.84 62.73,-123.13 67.21,-132.73 72.22,-127.84"/>
<text text-anchor="middle" x="124" y="-144.8" font-family="Times New Roman,serif" font-size="14.00" fill="cyan">other test</text>
</g>
<!-- d -->
<g id="node4" class="node">
<title>d</title>
<path fill="lightgrey" stroke="black" stroke-width="2" d="M194,-123C194,-123 124,-123 124,-123 118,-123 112,-117 112,-111 112,-111 112,-99 112,-99 112,-93 118,-87 124,-87 124,-87 194,-87 194,-87 200,-87 206,-93 206,-99 206,-99 206,-111 206,-111 206,-117 200,-123 194,-123"/>
<text text-anchor="middle" x="159" y="-101.3" font-family="Arial" font-size="14.00">d</text>
</g>
<!-- b&#45;&gt;d -->
<g id="edge3" class="edge">
<title>b&#45;&gt;d</title>
<path fill="none" stroke="#49b55b" d="M152.83,-173.85C152.86,-164.19 153.12,-151.9 154,-141 154.21,-138.43 154.48,-135.76 154.8,-133.1"/>
<polygon fill="#49b55b" stroke="#49b55b" points="158.28,-133.42 156.14,-123.04 151.35,-132.49 158.28,-133.42"/>
<text text-anchor="middle" x="183" y="-144.8" font-family="Times New Roman,serif" font-size="14.00" fill="#49b55b">something</text>
</g>
<!-- e -->
<g id="node5" class="node">
<title>e</title>
<path fill="lightgrey" stroke="black" stroke-width="2" d="M194,-36C194,-36 124,-36 124,-36 118,-36 112,-30 112,-24 112,-24 112,-12 112,-12 112,-6 118,0 124,0 124,0 194,0 194,0 200,0 206,-6 206,-12 206,-12 206,-24 206,-24 206,-30 200,-36 194,-36"/>
<text text-anchor="middle" x="159" y="-14.3" font-family="Arial" font-size="14.00">e</text>
</g>
<!-- c&#45;&gt;e -->
<g id="edge4" class="edge">
<title>c&#45;&gt;e</title>
<path fill="none" stroke="#afa0ff" d="M69.66,-86.8C86.52,-74.01 109.7,-56.42 128.22,-42.36"/>
<polygon fill="#afa0ff" stroke="#afa0ff" points="130.52,-45.01 136.37,-36.18 126.29,-39.43 130.52,-45.01"/>
<text text-anchor="middle" x="124" y="-57.8" font-family="Times New Roman,serif" font-size="14.00" fill="#afa0ff">thing</text>
</g>
<!-- d&#45;&gt;e -->
<g id="edge5" class="edge">
<title>d&#45;&gt;e</title>
<path fill="none" stroke="#afa0ff" d="M159,-86.8C159,-75.16 159,-59.55 159,-46.24"/>
<polygon fill="#afa0ff" stroke="#afa0ff" points="162.5,-46.18 159,-36.18 155.5,-46.18 162.5,-46.18"/>
<text text-anchor="middle" x="173" y="-57.8" font-family="Times New Roman,serif" font-size="14.00" fill="#afa0ff">thing</text>
</g>
<!-- e&#45;&gt;a -->
<g id="edge6" class="edge">
<title>e&#45;&gt;a</title>
<path fill="none" stroke="#cd1be3" d="M179.57,-36.23C192.71,-48.74 208.47,-66.93 215,-87 233.15,-142.83 225.24,-212.78 218.64,-250.62"/>
<polygon fill="#cd1be3" stroke="#cd1be3" points="215.12,-250.38 216.74,-260.85 222.01,-251.65 215.12,-250.38"/>
<text text-anchor="middle" x="246.5" y="-144.8" font-family="Times New Roman,serif" font-size="14.00" fill="#cd1be3">random</text>
</g>
</g>
</svg>
