<?xml version="1.0" encoding="UTF-8" standalone="no"?>
<!DOCTYPE svg PUBLIC "-//W3C//DTD SVG 1.1//EN"
 "http://www.w3.org/Graphics/SVG/1.1/DTD/svg11.dtd">
<!-- Generated by graphviz version 2.49.0 (20210828.1703)
 -->
<!-- Title: patch Pages: 1 -->
<svg width="326pt" height="260pt"
 viewBox="0.00 0.00 326.00 260.00" xmlns="http://www.w3.org/2000/svg" xmlns:xlink="http://www.w3.org/1999/xlink">
<g id="graph0" class="graph" transform="scale(1 1) rotate(0) translate(4 256)">
<title>patch</title>
<polygon fill="white" stroke="transparent" points="-4,4 -4,-256 322,-256 322,4 -4,4"/>
<!-- a -->
<g id="node1" class="node">
<title>a</title>
<path fill="lightgrey" stroke="black" stroke-width="2" d="M82,-108C82,-108 12,-108 12,-108 6,-108 0,-102 0,-96 0,-96 0,-84 0,-84 0,-78 6,-72 12,-72 12,-72 82,-72 82,-72 88,-72 94,-78 94,-84 94,-84 94,-96 94,-96 94,-102 88,-108 82,-108"/>
<text text-anchor="middle" x="47" y="-86.3" font-family="Arial" font-size="14.00">a</text>
</g>
<!-- b -->
<g id="node2" class="node">
<title>b</title>
<path fill="lightgrey" stroke="black" stroke-width="2" d="M138,-36C138,-36 68,-36 68,-36 62,-36 56,-30 56,-24 56,-24 56,-12 56,-12 56,-6 62,0 68,0 68,0 138,0 138,0 144,0 150,-6 150,-12 150,-12 150,-24 150,-24 150,-30 144,-36 138,-36"/>
<text text-anchor="middle" x="103" y="-14.3" font-family="Arial" font-size="14.00">b</text>
</g>
<!-- a&#45;&gt;b -->
<g id="edge1" class="edge">
<title>a&#45;&gt;b</title>
<path fill="none" stroke="black" d="M60.84,-71.7C67.49,-63.39 75.58,-53.28 82.89,-44.14"/>
<polygon fill="black" stroke="black" points="85.8,-46.1 89.32,-36.1 80.34,-41.73 85.8,-46.1"/>
</g>
<!-- c -->
<g id="node3" class="node">
<title>c</title>
<path fill="lightgrey" stroke="black" stroke-width="2" d="M194,-108C194,-108 124,-108 124,-108 118,-108 112,-102 112,-96 112,-96 112,-84 112,-84 112,-78 118,-72 124,-72 124,-72 194,-72 194,-72 200,-72 206,-78 206,-84 206,-84 206,-96 206,-96 206,-102 200,-108 194,-108"/>
<text text-anchor="middle" x="159" y="-86.3" font-family="Arial" font-size="14.00">c</text>
</g>
<!-- c&#45;&gt;b -->
<g id="edge2" class="edge">
<title>c&#45;&gt;b</title>
<path fill="none" stroke="black" d="M145.16,-71.7C138.51,-63.39 130.42,-53.28 123.11,-44.14"/>
<polygon fill="black" stroke="black" points="125.66,-41.73 116.68,-36.1 120.2,-46.1 125.66,-41.73"/>
</g>
<!-- d -->
<g id="node4" class="node">
<title>d</title>
<path fill="lightgrey" stroke="black" stroke-width="2" d="M194,-180C194,-180 124,-180 124,-180 118,-180 112,-174 112,-168 112,-168 112,-156 112,-156 112,-150 118,-144 124,-144 124,-144 194,-144 194,-144 200,-144 206,-150 206,-156 206,-156 206,-168 206,-168 206,-174 200,-180 194,-180"/>
<text text-anchor="middle" x="159" y="-158.3" font-family="Arial" font-size="14.00">d</text>
</g>
<!-- d&#45;&gt;c -->
<g id="edge3" class="edge">
<title>d&#45;&gt;c</title>
<path fill="none" stroke="black" d="M159,-143.7C159,-135.98 159,-126.71 159,-118.11"/>
<polygon fill="black" stroke="black" points="162.5,-118.1 159,-108.1 155.5,-118.1 162.5,-118.1"/>
</g>
<!-- e -->
<g id="node5" class="node">
<title>e</title>
<path fill="lightgrey" stroke="black" stroke-width="2" d="M250,-252C250,-252 180,-252 180,-252 174,-252 168,-246 168,-240 168,-240 168,-228 168,-228 168,-222 174,-216 180,-216 180,-216 250,-216 250,-216 256,-216 262,-222 262,-228 262,-228 262,-240 262,-240 262,-246 256,-252 250,-252"/>
<text text-anchor="middle" x="215" y="-230.3" font-family="Arial" font-size="14.00">e</text>
</g>
<!-- e&#45;&gt;d -->
<g id="edge4" class="edge">
<title>e&#45;&gt;d</title>
<path fill="none" stroke="black" d="M201.16,-215.7C194.51,-207.39 186.42,-197.28 179.11,-188.14"/>
<polygon fill="black" stroke="black" points="181.66,-185.73 172.68,-180.1 176.2,-190.1 181.66,-185.73"/>
</g>
<!-- f -->
<g id="node6" class="node">
<title>f</title>
<path fill="lightgrey" stroke="black" stroke-width="2" d="M306,-180C306,-180 236,-180 236,-180 230,-180 224,-174 224,-168 224,-168 224,-156 224,-156 224,-150 230,-144 236,-144 236,-144 306,-144 306,-144 312,-144 318,-150 318,-156 318,-156 318,-168 318,-168 318,-174 312,-180 306,-180"/>
<text text-anchor="middle" x="271" y="-158.3" font-family="Arial" font-size="14.00">f</text>
</g>
<!-- e&#45;&gt;f -->
<g id="edge5" class="edge">
<title>e&#45;&gt;f</title>
<path fill="none" stroke="black" d="M228.84,-215.7C235.49,-207.39 243.58,-197.28 250.89,-188.14"/>
<polygon fill="black" stroke="black" points="253.8,-190.1 257.32,-180.1 248.34,-185.73 253.8,-190.1"/>
</g>
<!-- g -->
<g id="node7" class="node">
<title>g</title>
<path fill="lightgrey" stroke="black" stroke-width="2" d="M306,-108C306,-108 236,-108 236,-108 230,-108 224,-102 224,-96 224,-96 224,-84 224,-84 224,-78 230,-72 236,-72 236,-72 306,-72 306,-72 312,-72 318,-78 318,-84 318,-84 318,-96 318,-96 318,-102 312,-108 306,-108"/>
<text text-anchor="middle" x="271" y="-86.3" font-family="Arial" font-size="14.00">g</text>
</g>
<!-- f&#45;&gt;g -->
<g id="edge6" class="edge">
<title>f&#45;&gt;g</title>
<path fill="none" stroke="black" d="M271,-143.7C271,-135.98 271,-126.71 271,-118.11"/>
<polygon fill="black" stroke="black" points="274.5,-118.1 271,-108.1 267.5,-118.1 274.5,-118.1"/>
</g>
</g>
</svg>
