<?xml version="1.0" encoding="UTF-8" standalone="no"?>
<!DOCTYPE svg PUBLIC "-//W3C//DTD SVG 1.1//EN"
 "http://www.w3.org/Graphics/SVG/1.1/DTD/svg11.dtd">
<!-- Generated by graphviz version 2.49.0 (20210828.1703)
 -->
<!-- Title: patch Pages: 1 -->
<svg width="326pt" height="116pt"
 viewBox="0.00 0.00 326.00 116.00" xmlns="http://www.w3.org/2000/svg" xmlns:xlink="http://www.w3.org/1999/xlink">
<g id="graph0" class="graph" transform="scale(1 1) rotate(0) translate(4 112)">
<title>patch</title>
<polygon fill="white" stroke="transparent" points="-4,4 -4,-112 322,-112 322,4 -4,4"/>
<!-- c -->
<g id="node1" class="node">
<title>c</title>
<path fill="lightgrey" stroke="black" stroke-width="2" d="M82,-108C82,-108 12,-108 12,-108 6,-108 0,-102 0,-96 0,-96 0,-84 0,-84 0,-78 6,-72 12,-72 12,-72 82,-72 82,-72 88,-72 94,-78 94,-84 94,-84 94,-96 94,-96 94,-102 88,-108 82,-108"/>
<text text-anchor="middle" x="47" y="-86.3" font-family="Arial" font-size="14.00">c</text>
</g>
<!-- d -->
<g id="node2" class="node">
<title>d</title>
<path fill="lightgrey" stroke="black" stroke-width="2" d="M194,-108C194,-108 124,-108 124,-108 118,-108 112,-102 112,-96 112,-96 112,-84 112,-84 112,-78 118,-72 124,-72 124,-72 194,-72 194,-72 200,-72 206,-78 206,-84 206,-84 206,-96 206,-96 206,-102 200,-108 194,-108"/>
<text text-anchor="middle" x="159" y="-86.3" font-family="Arial" font-size="14.00">d</text>
</g>
<!-- c&#45;&gt;d -->
<g id="edge3" class="edge">
<title>c&#45;&gt;d</title>
<path fill="none" stroke="black" d="M94.25,-90C96.74,-90 99.23,-90 101.72,-90"/>
<polygon fill="black" stroke="black" points="101.96,-93.5 111.96,-90 101.96,-86.5 101.96,-93.5"/>
</g>
<!-- a -->
<g id="node3" class="node">
<title>a</title>
<path fill="lightgrey" stroke="black" stroke-width="2" d="M306,-108C306,-108 236,-108 236,-108 230,-108 224,-102 224,-96 224,-96 224,-84 224,-84 224,-78 230,-72 236,-72 236,-72 306,-72 306,-72 312,-72 318,-78 318,-84 318,-84 318,-96 318,-96 318,-102 312,-108 306,-108"/>
<text text-anchor="middle" x="271" y="-86.3" font-family="Arial" font-size="14.00">a</text>
</g>
<!-- b -->
<g id="node4" class="node">
<title>b</title>
<path fill="lightgrey" stroke="black" stroke-width="2" d="M194,-36C194,-36 124,-36 124,-36 118,-36 112,-30 112,-24 112,-24 112,-12 112,-12 112,-6 118,0 124,0 124,0 194,0 194,0 200,0 206,-6 206,-12 206,-12 206,-24 206,-24 206,-30 200,-36 194,-36"/>
<text text-anchor="middle" x="159" y="-14.3" font-family="Arial" font-size="14.00">b</text>
</g>
<!-- a&#45;&gt;b -->
<g id="edge1" class="edge">
<title>a&#45;&gt;b</title>
<path fill="none" stroke="black" d="M243.6,-71.88C229.09,-62.81 211.08,-51.55 195.41,-41.76"/>
<polygon fill="black" stroke="black" points="196.84,-38.52 186.5,-36.19 193.13,-44.46 196.84,-38.52"/>
</g>
<!-- b&#45;&gt;c -->
<g id="edge2" class="edge">
<title>b&#45;&gt;c</title>
<path fill="none" stroke="black" d="M131.5,-36.19C116.97,-45.27 98.96,-56.53 83.3,-66.31"/>
<polygon fill="black" stroke="black" points="81.02,-63.61 74.4,-71.88 84.73,-69.54 81.02,-63.61"/>
</g>
</g>
</svg>
