<?xml version="1.0" encoding="UTF-8" standalone="no"?>
<!DOCTYPE svg PUBLIC "-//W3C//DTD SVG 1.1//EN"
 "http://www.w3.org/Graphics/SVG/1.1/DTD/svg11.dtd">
<!-- Generated by graphviz version 2.49.0 (20210828.1703)
 -->
<!-- Title: patch Pages: 1 -->
<svg width="102pt" height="260pt"
 viewBox="0.00 0.00 102.00 260.00" xmlns="http://www.w3.org/2000/svg" xmlns:xlink="http://www.w3.org/1999/xlink">
<g id="graph0" class="graph" transform="scale(1 1) rotate(0) translate(4 256)">
<title>patch</title>
<polygon fill="white" stroke="transparent" points="-4,4 -4,-256 98,-256 98,4 -4,4"/>
<!-- a -->
<g id="node1" class="node">
<title>a</title>
<path fill="lightgrey" stroke="black" stroke-width="2" d="M82,-252C82,-252 12,-252 12,-252 6,-252 0,-246 0,-240 0,-240 0,-228 0,-228 0,-222 6,-216 12,-216 12,-216 82,-216 82,-216 88,-216 94,-222 94,-228 94,-228 94,-240 94,-240 94,-246 88,-252 82,-252"/>
<text text-anchor="middle" x="47" y="-230.3" font-family="Arial" font-size="14.00">a</text>
</g>
<!-- b -->
<g id="node2" class="node">
<title>b</title>
<path fill="lightgrey" stroke="black" stroke-width="2" d="M82,-180C82,-180 12,-180 12,-180 6,-180 0,-174 0,-168 0,-168 0,-156 0,-156 0,-150 6,-144 12,-144 12,-144 82,-144 82,-144 88,-144 94,-150 94,-156 94,-156 94,-168 94,-168 94,-174 88,-180 82,-180"/>
<text text-anchor="middle" x="47" y="-158.3" font-family="Arial" font-size="14.00">b</text>
</g>
<!-- a&#45;&gt;b -->
<g id="edge1" class="edge">
<title>a&#45;&gt;b</title>
<path fill="none" stroke="black" d="M47,-215.7C47,-207.98 47,-198.71 47,-190.11"/>
<polygon fill="black" stroke="black" points="50.5,-190.1 47,-180.1 43.5,-190.1 50.5,-190.1"/>
</g>
<!-- c -->
<g id="node3" class="node">
<title>c</title>
<path fill="lightgrey" stroke="black" stroke-width="2" d="M82,-108C82,-108 12,-108 12,-108 6,-108 0,-102 0,-96 0,-96 0,-84 0,-84 0,-78 6,-72 12,-72 12,-72 82,-72 82,-72 88,-72 94,-78 94,-84 94,-84 94,-96 94,-96 94,-102 88,-108 82,-108"/>
<text text-anchor="middle" x="47" y="-86.3" font-family="Arial" font-size="14.00">c</text>
</g>
<!-- b&#45;&gt;c -->
<g id="edge2" class="edge">
<title>b&#45;&gt;c</title>
<path fill="none" stroke="black" d="M47,-143.7C47,-135.98 47,-126.71 47,-118.11"/>
<polygon fill="black" stroke="black" points="50.5,-118.1 47,-108.1 43.5,-118.1 50.5,-118.1"/>
</g>
<!-- d -->
<g id="node4" class="node">
<title>d</title>
<path fill="lightgrey" stroke="black" stroke-width="2" d="M82,-36C82,-36 12,-36 12,-36 6,-36 0,-30 0,-24 0,-24 0,-12 0,-12 0,-6 6,0 12,0 12,0 82,0 82,0 88,0 94,-6 94,-12 94,-12 94,-24 94,-24 94,-30 88,-36 82,-36"/>
<text text-anchor="middle" x="47" y="-14.3" font-family="Arial" font-size="14.00">d</text>
</g>
<!-- c&#45;&gt;d -->
<g id="edge3" class="edge">
<title>c&#45;&gt;d</title>
<path fill="none" stroke="black" d="M47,-71.7C47,-63.98 47,-54.71 47,-46.11"/>
<polygon fill="black" stroke="black" points="50.5,-46.1 47,-36.1 43.5,-46.1 50.5,-46.1"/>
</g>
</g>
</svg>
