<?xml version="1.0" encoding="UTF-8" standalone="no"?>
<!DOCTYPE svg PUBLIC "-//W3C//DTD SVG 1.1//EN"
 "http://www.w3.org/Graphics/SVG/1.1/DTD/svg11.dtd">
<!-- Generated by graphviz version 2.49.0 (20210828.1703)
 -->
<!-- Title: patch Pages: 1 -->
<svg width="492pt" height="302pt"
 viewBox="0.00 0.00 492.00 302.00" xmlns="http://www.w3.org/2000/svg" xmlns:xlink="http://www.w3.org/1999/xlink">
<g id="graph0" class="graph" transform="scale(1 1) rotate(0) translate(4 298)">
<title>patch</title>
<polygon fill="white" stroke="transparent" points="-4,4 -4,-298 488,-298 488,4 -4,4"/>
<!-- test_3_0 -->
<g id="node1" class="node">
<title>test_3_0</title>
<polygon fill="white" stroke="black" points="484,-294 390,-294 390,-258 484,-258 484,-294"/>
<text text-anchor="middle" x="437" y="-272.3" font-family="Arial" font-size="14.00">Sally</text>
</g>
<!-- test_3_1 -->
<g id="node5" class="node">
<title>test_3_1</title>
<ellipse fill="black" stroke="black" cx="437" cy="-221" rx="0" ry="0"/>
</g>
<!-- test_3_0&#45;&gt;test_3_1 -->
<g id="edge9" class="edge">
<title>test_3_0&#45;&gt;test_3_1</title>
<path fill="none" stroke="gray" d="M437,-257.94C437,-242.93 437,-223.27 437,-222.06"/>
</g>
<!-- test_2_0 -->
<g id="node2" class="node">
<title>test_2_0</title>
<polygon fill="white" stroke="black" points="354,-294 260,-294 260,-258 354,-258 354,-294"/>
<text text-anchor="middle" x="307" y="-272.3" font-family="Arial" font-size="14.00">Charlie</text>
</g>
<!-- test_2_0&#45;&gt;test_3_0 -->
<!-- test_2_1 -->
<g id="node6" class="node">
<title>test_2_1</title>
<ellipse fill="black" stroke="black" cx="307" cy="-221" rx="0" ry="0"/>
</g>
<!-- test_2_0&#45;&gt;test_2_1 -->
<g id="edge7" class="edge">
<title>test_2_0&#45;&gt;test_2_1</title>
<path fill="none" stroke="gray" d="M307,-257.94C307,-242.93 307,-223.27 307,-222.06"/>
</g>
<!-- test_1_0 -->
<g id="node3" class="node">
<title>test_1_0</title>
<polygon fill="cyan" stroke="black" points="177,-294 130,-276 177,-258 224,-276 177,-294"/>
<text text-anchor="middle" x="177" y="-272.3" font-family="Arial" font-size="14.00">Bob</text>
</g>
<!-- test_1_0&#45;&gt;test_2_0 -->
<!-- test_1_1 -->
<g id="node7" class="node">
<title>test_1_1</title>
<ellipse fill="black" stroke="black" cx="177" cy="-221" rx="0" ry="0"/>
</g>
<!-- test_1_0&#45;&gt;test_1_1 -->
<g id="edge5" class="edge">
<title>test_1_0&#45;&gt;test_1_1</title>
<path fill="none" stroke="gray" d="M177,-257.94C177,-242.93 177,-223.27 177,-222.06"/>
</g>
<!-- test_0_0 -->
<g id="node4" class="node">
<title>test_0_0</title>
<polygon fill="white" stroke="black" points="94,-294 0,-294 0,-258 94,-258 94,-294"/>
<text text-anchor="middle" x="47" y="-272.3" font-family="Arial" font-size="14.00">Alice</text>
</g>
<!-- test_0_0&#45;&gt;test_1_0 -->
<!-- test_0_1 -->
<g id="node8" class="node">
<title>test_0_1</title>
<ellipse fill="black" stroke="black" cx="47" cy="-221" rx="0" ry="0"/>
</g>
<!-- test_0_0&#45;&gt;test_0_1 -->
<g id="edge4" class="edge">
<title>test_0_0&#45;&gt;test_0_1</title>
<path fill="none" stroke="gray" d="M47,-257.94C47,-242.93 47,-223.27 47,-222.06"/>
</g>
<!-- test_3_2 -->
<g id="node9" class="node">
<title>test_3_2</title>
<ellipse fill="black" stroke="black" cx="437" cy="-184" rx="0" ry="0"/>
</g>
<!-- test_3_1&#45;&gt;test_3_2 -->
<g id="edge16" class="edge">
<title>test_3_1&#45;&gt;test_3_2</title>
<path fill="none" stroke="gray" d="M437,-219.9C437,-217.91 437,-187.02 437,-185.09"/>
</g>
<!-- test_2_1&#45;&gt;test_3_1 -->
<g id="edge10" class="edge">
<title>test_2_1&#45;&gt;test_3_1</title>
<path fill="none" stroke="red" stroke-dasharray="1,5" d="M307.09,-221C310.55,-221 407.79,-221 431.72,-221"/>
<polygon fill="red" stroke="red" points="436.91,-221 431.91,-223.25 434.41,-221 431.91,-221 431.91,-221 431.91,-221 436.91,-221"/>
<text text-anchor="middle" x="372" y="-227.8" font-family="Times New Roman,serif" font-size="14.00" fill="#49b55b">I&#39;m busy</text>
</g>
<!-- test_2_2 -->
<g id="node10" class="node">
<title>test_2_2</title>
<ellipse fill="black" stroke="black" cx="307" cy="-184" rx="0" ry="0"/>
</g>
<!-- test_2_1&#45;&gt;test_2_2 -->
<g id="edge14" class="edge">
<title>test_2_1&#45;&gt;test_2_2</title>
<path fill="none" stroke="gray" d="M307,-219.9C307,-217.91 307,-187.02 307,-185.09"/>
</g>
<!-- test_1_1&#45;&gt;test_2_1 -->
<g id="edge8" class="edge">
<title>test_1_1&#45;&gt;test_2_1</title>
<path fill="none" stroke="red" stroke-dasharray="1,5" d="M177.25,-221C220.42,-221 263.58,-221 306.75,-221"/>
</g>
<!-- test_1_2 -->
<g id="node11" class="node">
<title>test_1_2</title>
<ellipse fill="black" stroke="black" cx="177" cy="-184" rx="0" ry="0"/>
</g>
<!-- test_1_1&#45;&gt;test_1_2 -->
<g id="edge12" class="edge">
<title>test_1_1&#45;&gt;test_1_2</title>
<path fill="none" stroke="gray" d="M177,-219.9C177,-217.91 177,-187.02 177,-185.09"/>
</g>
<!-- test_0_1&#45;&gt;test_1_1 -->
<g id="edge6" class="edge">
<title>test_0_1&#45;&gt;test_1_1</title>
<path fill="none" stroke="red" stroke-dasharray="1,5" d="M51.3,-221C93.12,-221 134.93,-221 176.75,-221"/>
<ellipse fill="none" stroke="red" cx="49.25" cy="-221" rx="2" ry="2"/>
</g>
<!-- test_0_2 -->
<g id="node12" class="node">
<title>test_0_2</title>
<ellipse fill="black" stroke="black" cx="47" cy="-184" rx="0" ry="0"/>
</g>
<!-- test_0_1&#45;&gt;test_0_2 -->
<g id="edge11" class="edge">
<title>test_0_1&#45;&gt;test_0_2</title>
<path fill="none" stroke="gray" d="M47,-219.9C47,-217.91 47,-187.02 47,-185.09"/>
</g>
<!-- test_3_3 -->
<g id="node13" class="node">
<title>test_3_3</title>
<ellipse fill="black" stroke="black" cx="437" cy="-147" rx="0" ry="0"/>
</g>
<!-- test_3_2&#45;&gt;test_3_3 -->
<g id="edge23" class="edge">
<title>test_3_2&#45;&gt;test_3_3</title>
<path fill="none" stroke="gray" d="M437,-182.9C437,-180.91 437,-150.02 437,-148.09"/>
</g>
<!-- test_2_2&#45;&gt;test_3_2 -->
<!-- test_2_3 -->
<g id="node14" class="node">
<title>test_2_3</title>
<ellipse fill="black" stroke="black" cx="307" cy="-147" rx="0" ry="0"/>
</g>
<!-- test_2_2&#45;&gt;test_2_3 -->
<g id="edge21" class="edge">
<title>test_2_2&#45;&gt;test_2_3</title>
<path fill="none" stroke="gray" d="M307,-182.9C307,-180.91 307,-150.02 307,-148.09"/>
</g>
<!-- test_1_2&#45;&gt;test_2_2 -->
<g id="edge15" class="edge">
<title>test_1_2&#45;&gt;test_2_2</title>
<path fill="none" stroke="black" d="M177.09,-184C180.55,-184 277.79,-184 301.72,-184"/>
<polygon fill="black" stroke="black" points="306.91,-184 301.91,-186.25 304.41,-184 301.91,-184 301.91,-184 301.91,-184 306.91,-184"/>
<text text-anchor="middle" x="242" y="-190.8" font-family="Times New Roman,serif" font-size="14.00" fill="#49b55b">Hey</text>
</g>
<!-- test_1_3 -->
<g id="node15" class="node">
<title>test_1_3</title>
<ellipse fill="black" stroke="black" cx="177" cy="-147" rx="0" ry="0"/>
</g>
<!-- test_1_2&#45;&gt;test_1_3 -->
<g id="edge19" class="edge">
<title>test_1_2&#45;&gt;test_1_3</title>
<path fill="none" stroke="gray" d="M177,-182.9C177,-180.91 177,-150.02 177,-148.09"/>
</g>
<!-- test_0_2&#45;&gt;test_1_2 -->
<g id="edge13" class="edge">
<title>test_0_2&#45;&gt;test_1_2</title>
<path fill="none" stroke="black" d="M51.3,-184C93.12,-184 134.93,-184 176.75,-184"/>
<ellipse fill="none" stroke="black" cx="49.25" cy="-184" rx="2" ry="2"/>
</g>
<!-- test_0_3 -->
<g id="node16" class="node">
<title>test_0_3</title>
<ellipse fill="black" stroke="black" cx="47" cy="-147" rx="0" ry="0"/>
</g>
<!-- test_0_2&#45;&gt;test_0_3 -->
<g id="edge18" class="edge">
<title>test_0_2&#45;&gt;test_0_3</title>
<path fill="none" stroke="gray" d="M47,-182.9C47,-180.91 47,-150.02 47,-148.09"/>
</g>
<!-- test_3_4 -->
<g id="node17" class="node">
<title>test_3_4</title>
<ellipse fill="black" stroke="black" cx="437" cy="-110" rx="0" ry="0"/>
</g>
<!-- test_3_3&#45;&gt;test_3_4 -->
<g id="edge30" class="edge">
<title>test_3_3&#45;&gt;test_3_4</title>
<path fill="none" stroke="gray" d="M437,-145.9C437,-143.91 437,-113.02 437,-111.09"/>
</g>
<!-- test_2_3&#45;&gt;test_3_3 -->
<!-- test_2_4 -->
<g id="node18" class="node">
<title>test_2_4</title>
<ellipse fill="black" stroke="black" cx="307" cy="-110" rx="0" ry="0"/>
</g>
<!-- test_2_3&#45;&gt;test_2_4 -->
<g id="edge28" class="edge">
<title>test_2_3&#45;&gt;test_2_4</title>
<path fill="none" stroke="gray" d="M307,-145.9C307,-143.91 307,-113.02 307,-111.09"/>
</g>
<!-- test_1_3&#45;&gt;test_2_3 -->
<g id="edge22" class="edge">
<title>test_1_3&#45;&gt;test_2_3</title>
<path fill="none" stroke="black" d="M182.3,-147C203.74,-147 283.81,-147 302.9,-147"/>
<polygon fill="black" stroke="black" points="177.09,-147 182.09,-144.75 179.59,-147 182.09,-147 182.09,-147 182.09,-147 177.09,-147"/>
<ellipse fill="none" stroke="black" cx="304.91" cy="-147" rx="2" ry="2"/>
<text text-anchor="middle" x="242" y="-153.8" font-family="Times New Roman,serif" font-size="14.00" fill="#49b55b">What to do?!</text>
</g>
<!-- test_1_4 -->
<g id="node19" class="node">
<title>test_1_4</title>
<ellipse fill="black" stroke="black" cx="177" cy="-110" rx="0" ry="0"/>
</g>
<!-- test_1_3&#45;&gt;test_1_4 -->
<g id="edge26" class="edge">
<title>test_1_3&#45;&gt;test_1_4</title>
<path fill="none" stroke="gray" d="M177,-145.9C177,-143.91 177,-113.02 177,-111.09"/>
</g>
<!-- test_0_3&#45;&gt;test_1_3 -->
<!-- test_0_4 -->
<g id="node20" class="node">
<title>test_0_4</title>
<ellipse fill="black" stroke="black" cx="47" cy="-110" rx="0" ry="0"/>
</g>
<!-- test_0_3&#45;&gt;test_0_4 -->
<g id="edge25" class="edge">
<title>test_0_3&#45;&gt;test_0_4</title>
<path fill="none" stroke="gray" d="M47,-145.9C47,-143.91 47,-113.02 47,-111.09"/>
</g>
<!-- test_3_5 -->
<g id="node21" class="node">
<title>test_3_5</title>
<ellipse fill="black" stroke="black" cx="437" cy="-73" rx="0" ry="0"/>
</g>
<!-- test_3_4&#45;&gt;test_3_5 -->
<g id="edge37" class="edge">
<title>test_3_4&#45;&gt;test_3_5</title>
<path fill="none" stroke="gray" d="M437,-108.9C437,-106.91 437,-76.02 437,-74.09"/>
</g>
<!-- test_2_4&#45;&gt;test_3_4 -->
<!-- test_2_5 -->
<g id="node22" class="node">
<title>test_2_5</title>
<ellipse fill="black" stroke="black" cx="307" cy="-73" rx="0" ry="0"/>
</g>
<!-- test_2_4&#45;&gt;test_2_5 -->
<g id="edge35" class="edge">
<title>test_2_4&#45;&gt;test_2_5</title>
<path fill="none" stroke="gray" d="M307,-108.9C307,-106.91 307,-76.02 307,-74.09"/>
</g>
<!-- test_1_4&#45;&gt;test_2_4 -->
<g id="edge29" class="edge">
<title>test_1_4&#45;&gt;test_2_4</title>
<path fill="none" stroke="black" d="M181.11,-110C200.2,-110 280.24,-110 301.69,-110"/>
<ellipse fill="none" stroke="black" cx="179.09" cy="-110" rx="2" ry="2"/>
<polygon fill="black" stroke="black" points="306.91,-110 301.91,-112.25 304.41,-110 301.91,-110 301.91,-110 301.91,-110 306.91,-110"/>
<text text-anchor="middle" x="242" y="-116.8" font-family="Times New Roman,serif" font-size="14.00" fill="#49b55b">???!</text>
</g>
<!-- test_1_5 -->
<g id="node23" class="node">
<title>test_1_5</title>
<ellipse fill="black" stroke="black" cx="177" cy="-73" rx="0" ry="0"/>
</g>
<!-- test_1_4&#45;&gt;test_1_5 -->
<g id="edge33" class="edge">
<title>test_1_4&#45;&gt;test_1_5</title>
<path fill="none" stroke="gray" d="M177,-108.9C177,-106.91 177,-76.02 177,-74.09"/>
</g>
<!-- test_0_4&#45;&gt;test_1_4 -->
<!-- test_0_5 -->
<g id="node24" class="node">
<title>test_0_5</title>
<ellipse fill="black" stroke="black" cx="47" cy="-73" rx="0" ry="0"/>
</g>
<!-- test_0_4&#45;&gt;test_0_5 -->
<g id="edge32" class="edge">
<title>test_0_4&#45;&gt;test_0_5</title>
<path fill="none" stroke="gray" d="M47,-108.9C47,-106.91 47,-76.02 47,-74.09"/>
</g>
<!-- test_3_6 -->
<g id="node25" class="node">
<title>test_3_6</title>
<polygon fill="white" stroke="black" points="484,-36 390,-36 390,0 484,0 484,-36"/>
<text text-anchor="middle" x="437" y="-14.3" font-family="Arial" font-size="14.00">Sally</text>
</g>
<!-- test_3_5&#45;&gt;test_3_6 -->
<g id="edge44" class="edge">
<title>test_3_5&#45;&gt;test_3_6</title>
<path fill="none" stroke="gray" d="M437,-71.85C437,-69.95 437,-50.74 437,-36.02"/>
</g>
<!-- test_2_5&#45;&gt;test_3_5 -->
<!-- test_2_6 -->
<g id="node26" class="node">
<title>test_2_6</title>
<polygon fill="white" stroke="black" points="354,-36 260,-36 260,0 354,0 354,-36"/>
<text text-anchor="middle" x="307" y="-14.3" font-family="Arial" font-size="14.00">Charlie</text>
</g>
<!-- test_2_5&#45;&gt;test_2_6 -->
<g id="edge42" class="edge">
<title>test_2_5&#45;&gt;test_2_6</title>
<path fill="none" stroke="gray" d="M307,-71.85C307,-69.95 307,-50.74 307,-36.02"/>
</g>
<!-- test_1_5&#45;&gt;test_2_5 -->
<g id="edge36" class="edge">
<title>test_1_5&#45;&gt;test_2_5</title>
<path fill="none" stroke="black" d="M177.25,-73C219.07,-73 260.88,-73 302.7,-73"/>
<ellipse fill="none" stroke="black" cx="304.75" cy="-73" rx="2" ry="2"/>
</g>
<!-- test_1_6 -->
<g id="node27" class="node">
<title>test_1_6</title>
<polygon fill="cyan" stroke="black" points="177,-36 130,-18 177,0 224,-18 177,-36"/>
<text text-anchor="middle" x="177" y="-14.3" font-family="Arial" font-size="14.00">Bob</text>
</g>
<!-- test_1_5&#45;&gt;test_1_6 -->
<g id="edge40" class="edge">
<title>test_1_5&#45;&gt;test_1_6</title>
<path fill="none" stroke="gray" d="M177,-71.85C177,-69.95 177,-50.74 177,-36.02"/>
</g>
<!-- test_0_5&#45;&gt;test_1_5 -->
<g id="edge34" class="edge">
<title>test_0_5&#45;&gt;test_1_5</title>
<path fill="none" stroke="black" d="M52.3,-73C76.27,-73 173.51,-73 176.91,-73"/>
<polygon fill="black" stroke="black" points="47.09,-73 52.09,-70.75 49.59,-73 52.09,-73 52.09,-73 52.09,-73 47.09,-73"/>
<text text-anchor="middle" x="112" y="-79.8" font-family="Times New Roman,serif" font-size="14.00" fill="#49b55b">Oh. &#160;Hey you!</text>
</g>
<!-- test_0_6 -->
<g id="node28" class="node">
<title>test_0_6</title>
<polygon fill="white" stroke="black" points="94,-36 0,-36 0,0 94,0 94,-36"/>
<text text-anchor="middle" x="47" y="-14.3" font-family="Arial" font-size="14.00">Alice</text>
</g>
<!-- test_0_5&#45;&gt;test_0_6 -->
<g id="edge39" class="edge">
<title>test_0_5&#45;&gt;test_0_6</title>
<path fill="none" stroke="gray" d="M47,-71.85C47,-69.95 47,-50.74 47,-36.02"/>
</g>
<!-- test_2_6&#45;&gt;test_3_6 -->
<!-- test_1_6&#45;&gt;test_2_6 -->
<!-- test_0_6&#45;&gt;test_1_6 -->
</g>
</svg>
